<mxfile host="app.diagrams.net" modified="2024-01-29T14:41:18.332Z" agent="Mozilla/5.0 (Windows NT 10.0; Win64; x64) AppleWebKit/537.36 (KHTML, like Gecko) Chrome/121.0.0.0 Safari/537.36" version="23.0.2" etag="md79LJ8xz1tvTJe5NRdn" type="github">
  <diagram name="PÃ¡gina-1" id="vxG0UQACSZFj7d7GcTHN">
    <mxGraphModel>
      <root>
        <mxCell id="0" />
        <mxCell id="1" parent="0" />
      </root>
    </mxGraphModel>
  </diagram>
</mxfile>
